<?xml version="1.0" standalone="no"?>
<!DOCTYPE svg PUBLIC "-//W3C//DTD SVG 20010904//EN"
 "http://www.w3.org/TR/2001/REC-SVG-20010904/DTD/svg10.dtd">
<svg version="1.0" xmlns="http://www.w3.org/2000/svg"
 width="586.000000pt" height="426.000000pt" viewBox="0 0 586.000000 426.000000"
 preserveAspectRatio="xMidYMid meet">

<g transform="translate(0.000000,426.000000) scale(0.100000,-0.100000)"
fill="#000000" stroke="none">
<path d="M4224 4018 c-34 -56 -101 -163 -132 -212 -28 -44 -22 -67 19 -76 l24
-6 3 -444 2 -444 -23 22 c-21 20 -34 22 -144 22 -95 0 -123 -3 -133 -15 -7 -8
-16 -15 -21 -15 -5 0 -10 57 -11 128 l-3 127 -150 0 -150 0 -5 -504 c-4 -391
-8 -505 -17 -509 -13 -4 -19 616 -13 1396 2 235 -1 316 -10 327 -19 23 -275
22 -284 -1 -3 -9 -7 -169 -7 -357 -1 -209 -5 -326 -10 -302 -4 22 -8 119 -8
216 -1 122 -5 179 -13 187 -8 8 -55 12 -145 12 -121 0 -133 -2 -143 -19 -7
-13 -10 -294 -10 -840 0 -541 -3 -821 -10 -821 -6 0 -10 50 -9 133 0 72 -2
381 -4 684 -3 424 -7 556 -17 568 -10 12 -37 15 -134 15 -66 0 -127 -4 -134
-8 -9 -7 -13 -135 -15 -587 -1 -452 -5 -579 -14 -583 -10 -3 -13 88 -13 431 0
383 -2 437 -16 451 -12 13 -40 16 -135 16 -66 0 -129 -5 -140 -10 -17 -10 -19
-23 -19 -160 0 -83 -4 -150 -9 -150 -5 0 -14 7 -21 15 -10 12 -39 15 -141 15
-119 0 -129 -1 -139 -21 -7 -12 -11 -76 -9 -167 1 -120 -1 -147 -12 -146 -8 1
-88 20 -179 42 -268 65 -317 75 -332 70 -8 -3 -47 -61 -87 -128 -61 -102 -72
-126 -63 -144 11 -24 3 -39 -106 -214 -35 -56 -62 -108 -59 -116 4 -9 40 -15
129 -20 290 -15 338 -19 338 -27 0 -5 -24 -9 -52 -9 -29 -1 -109 -7 -178 -14
l-124 -13 -48 -54 c-26 -30 -78 -95 -115 -146 -49 -66 -76 -94 -98 -100 l-30
-9 -3 -89 c-2 -64 1 -91 10 -97 7 -4 420 -8 918 -8 l905 0 93 -92 92 -93 155
0 155 0 93 93 92 92 906 0 c690 0 908 3 917 12 7 7 12 44 12 96 l0 84 -31 11
c-21 8 -67 58 -145 154 -98 121 -120 143 -147 147 -127 18 -212 26 -268 26
-40 0 -58 4 -49 9 16 9 314 32 387 30 47 -2 63 6 63 28 0 8 -38 76 -85 151
-73 117 -84 141 -79 168 5 26 -6 50 -67 153 -57 95 -78 121 -95 121 -12 0 -71
-11 -132 -25 -61 -14 -118 -25 -126 -25 -15 0 -16 64 -14 638 l3 637 27 3 c38
5 52 25 37 54 -12 23 -135 214 -164 256 -25 34 -51 28 -81 -20z m-834 -1115
l-1 -858 -69 -48 -70 -47 0 905 0 905 70 0 70 0 0 -857z m-312 -257 l2 -848
-34 -38 -33 -37 -47 51 -46 51 0 838 0 838 78 -3 77 -3 3 -849z m649 252 c-2
-18 -4 -6 -4 27 0 33 2 48 4 33 2 -15 2 -42 0 -60z m323 -318 c0 -121 0 -223
1 -227 0 -5 -144 -63 -158 -63 -2 0 -3 115 -3 255 l0 255 80 0 80 0 0 -220z
m-1960 -105 c0 -91 -3 -165 -7 -165 -5 0 -37 11 -73 24 l-65 24 -3 141 -3 141
76 0 75 0 0 -165z m-525 -100 c227 -55 313 -82 500 -151 314 -117 628 -299
793 -459 80 -78 95 -106 61 -113 -8 -1 -48 23 -89 54 -333 252 -791 428 -1400
539 -80 15 -147 28 -149 30 -2 2 6 16 17 32 10 15 29 47 41 71 12 23 27 42 34
42 6 0 93 -20 192 -45z m3118 8 c13 -21 33 -54 45 -75 l22 -36 -72 -12 c-144
-22 -371 -72 -527 -115 -405 -113 -702 -250 -959 -442 -42 -32 -79 -52 -87
-49 -37 14 -6 57 109 153 320 269 781 468 1401 606 39 9 45 6 68 -30z m-3268
-258 c507 -53 972 -205 1298 -423 104 -69 138 -105 119 -124 -8 -8 -21 -4 -49
15 -69 47 -248 127 -399 176 -298 98 -622 150 -1131 179 l-121 7 55 93 c31 50
62 92 70 92 7 0 78 -7 158 -15z m3421 -75 c30 -47 54 -88 54 -91 0 -4 -60 -10
-132 -13 -581 -29 -1036 -119 -1347 -267 -58 -27 -127 -63 -154 -80 -36 -22
-53 -27 -61 -19 -16 16 2 39 70 88 304 219 766 384 1249 446 275 36 257 39
321 -64z m-2096 -50 c0 -5 -5 -10 -11 -10 -5 0 -7 5 -4 10 3 6 8 10 11 10 2 0
4 -4 4 -10z m-646 -254 c207 -33 406 -91 537 -156 96 -48 159 -87 159 -100 0
-13 -6 -13 -28 0 -66 37 -321 93 -525 115 -241 25 -643 18 -917 -16 -134 -16
-277 -39 -297 -46 -17 -6 -17 -5 -3 14 8 12 44 57 80 102 58 72 69 81 105 86
195 27 719 28 889 1z m2555 13 c225 -17 206 -10 294 -119 42 -52 75 -96 74
-97 -2 -1 -20 2 -42 7 -70 15 -355 48 -523 61 -209 15 -618 7 -762 -16 -136
-21 -340 -70 -398 -95 -25 -11 -48 -18 -51 -14 -19 19 197 130 344 177 132 42
267 72 395 86 52 6 109 13 125 15 72 8 410 5 544 -5z"/>
</g>
</svg>
